<svg id="Capa_1" data-name="Capa 1" xmlns="http://www.w3.org/2000/svg" viewBox="0 0 64 64"><defs><style>.cls-1{fill:#fff;}</style></defs><title>mute</title><g id="volume-off"><path class="cls-1" d="M59,39.83a15.35,15.35,0,0,0-8.89-14.14v7.78L59,42.31Zm8.89,0A26.37,26.37,0,0,1,66.12,49l5.34,5.3A29.71,29.71,0,0,0,75,39.48,31.94,31.94,0,0,0,50.12,8.36v7.43C60.43,19.33,67.9,28.52,67.9,39.83ZM15.63,8,11,12.61,27.72,29.23H11V50.44H25.23L43,68.12V44.43L58.3,59.64a30,30,0,0,1-8.18,4.24V71.3a30.44,30.44,0,0,0,13.16-6.36L70.39,72,75,67.41,43,35.59ZM43,11.55,35.54,19,43,26.4Z" transform="translate(-11.01 -8.01)"/></g></svg>