<?xml version="1.0" encoding="utf-8"?>
<!-- Generator: Adobe Illustrator 22.1.0, SVG Export Plug-In . SVG Version: 6.00 Build 0)  -->
<svg version="1.1" id="Layer_1" xmlns="http://www.w3.org/2000/svg" xmlns:xlink="http://www.w3.org/1999/xlink" x="0px" y="0px"
	 viewBox="0 0 64 64" style="enable-background:new 0 0 64 64;" xml:space="preserve">
<style type="text/css">
	.st0{fill:#FFFFFF;}
</style>
<title>repeat</title>
<path class="st0" d="M13.8,64c-0.3,0-0.6-0.1-0.8-0.3L0.3,51.3c-0.4-0.4-0.4-1-0.1-1.4c0,0,0,0,0.1-0.1L13,37.5
	c0.3-0.3,0.8-0.4,1.2-0.2s0.7,0.6,0.7,1v7.6h34.8c0.9,0,1.7-0.7,1.8-1.7v-8.6c0-0.3,0.1-0.5,0.3-0.7l8.5-8.3
	c0.3-0.3,0.8-0.4,1.2-0.2c0.4,0.2,0.7,0.6,0.7,1V46c0,6.7-3.6,10.2-10.5,10.2H14.9v6.7c0,0.4-0.2,0.9-0.7,1C14.1,64,13.9,64,13.8,64
	z"/>
<path class="st0" d="M3,37.8c-0.1,0-0.3,0-0.4-0.1c-0.4-0.1-0.7-0.6-0.7-1V18C2,11.3,5.6,7.8,12.5,7.8h36.7V1.1c0-0.4,0.3-0.8,0.7-1
	C50.2-0.1,50.7,0,51,0.3l12.6,12.4c0.4,0.4,0.4,1,0.1,1.4c0,0,0,0-0.1,0.1L51,26.5c-0.3,0.3-0.8,0.4-1.2,0.2c-0.4-0.1-0.7-0.6-0.7-1
	v-7.6H14.4c-0.9,0-1.7,0.7-1.7,1.7v8.6c0,0.3-0.1,0.6-0.3,0.8l-8.5,8.3C3.6,37.6,3.3,37.8,3,37.8z"/>
</svg>
