       <svg id="Layer_1" data-name="Layer 1" xmlns="http://www.w3.org/2000/svg" viewBox="0 0 64 64">
          <defs>
            <style>
              .cls-1 {
                fill: #fff;
              }

            </style>
          </defs>
          <title>repeat</title>
          <path class="cls-1"
            d="M20.14,71.51a1.13,1.13,0,0,1-.78-.31L6.67,58.85a1,1,0,0,1,0-1.48L19.36,45a1.11,1.11,0,0,1,1.19-.23,1,1,0,0,1,.66,1V53.4H56a1.73,1.73,0,0,0,1.75-1.69V43.1a1,1,0,0,1,.31-.74l8.49-8.28a1.11,1.11,0,0,1,1.18-.23,1.07,1.07,0,0,1,.67,1V53.54c0,6.68-3.63,10.21-10.51,10.21H21.22v6.71a1,1,0,0,1-.67,1A1,1,0,0,1,20.14,71.51Z"
            transform="translate(-6.36 -7.51)" />
          <path class="cls-1"
            d="M9.41,45.26A1,1,0,0,1,9,45.17a1,1,0,0,1-.67-1V25.5c0-6.69,3.62-10.21,10.51-10.21H55.51V8.56a1.08,1.08,0,0,1,.67-1,1.1,1.1,0,0,1,1.18.24L70,20.16a1,1,0,0,1,0,1.48L57.36,34a1.07,1.07,0,0,1-1.18.23,1,1,0,0,1-.67-1V25.63H20.72A1.71,1.71,0,0,0,19,27.32v8.61a1,1,0,0,1-.32.75l-8.5,8.26A1.07,1.07,0,0,1,9.41,45.26Z"
            transform="translate(-6.36 -7.51)" />
        </svg>