<svg id="Layer_1" data-name="Layer 1" xmlns="http://www.w3.org/2000/svg" viewBox="0 0 63.98 64.03"><defs><style>.cls-1{fill:#4c82af;}</style></defs><title>repeat-active</title><path class="cls-1" d="M13.78,64a1.13,1.13,0,0,1-.78-.31L.31,51.34a1,1,0,0,1-.07-1.41l.07-.07L13,37.49a1.09,1.09,0,0,1,1.19-.23,1,1,0,0,1,.66,1v7.63H49.64a1.73,1.73,0,0,0,1.75-1.69V35.59a1,1,0,0,1,.31-.74l8.49-8.28a1.12,1.12,0,0,1,1.18-.23,1.07,1.07,0,0,1,.67,1V46c0,6.68-3.63,10.21-10.51,10.21H14.86V63a1,1,0,0,1-.67,1A1,1,0,0,1,13.78,64Z" transform="translate(0.02 0.03)"/><path class="cls-1" d="M3.05,37.75a1,1,0,0,1-.41-.09,1,1,0,0,1-.67-1V18C2,11.3,5.59,7.78,12.48,7.78H49.15V1.05a1.08,1.08,0,0,1,.67-1A1.1,1.1,0,0,1,51,.29L63.64,12.65a1,1,0,0,1,.07,1.41l-.07.07L51,26.49a1.08,1.08,0,0,1-1.18.23,1,1,0,0,1-.67-1v-7.6H14.36a1.71,1.71,0,0,0-1.72,1.69v8.61a1,1,0,0,1-.32.75l-8.5,8.26A1.06,1.06,0,0,1,3.05,37.75Z" transform="translate(0.02 0.03)"/></svg>