        <svg id="Layer_1" data-name="Layer 1" xmlns="http://www.w3.org/2000/svg" viewBox="0 0 64 64">
          <defs>
            <style>
              .cls-1 {
                fill: #fff;
              }

            </style>
          </defs>
          <title>shuffle</title>
          <path class="cls-1"
            d="M37.14,39.51q1.63-4.36,2.78-6.84c.58-1.23,1.11-2.26,1.61-3.1a16.23,16.23,0,0,1,1.82-2.46,7,7,0,0,1,2.47-1.8,7.76,7.76,0,0,1,3.1-.6h9.15v7.68a1.31,1.31,0,0,0,.34.9,1.07,1.07,0,0,0,1.62,0l11.43-12.8a1.36,1.36,0,0,0,.32-.92,1.34,1.34,0,0,0-.32-.92L60.07,5.9a1.31,1.31,0,0,0-.86-.39,1,1,0,0,0-.82.36,1.29,1.29,0,0,0-.32.92v7.68H48.92a15.49,15.49,0,0,0-4.57.66,16.54,16.54,0,0,0-3.8,1.68,14.82,14.82,0,0,0-3.22,2.74,31.34,31.34,0,0,0-2.64,3.32,34,34,0,0,0-2.28,4q-1.2,2.4-1.93,4.2t-1.77,4.44c-1.1,2.9-2,5.18-2.79,6.84-.57,1.22-1.1,2.26-1.6,3.1a16.23,16.23,0,0,1-1.82,2.46A7,7,0,0,1,20,49.71a7.77,7.77,0,0,1-3.11.6h-8a1.06,1.06,0,0,0-.82.36,1.34,1.34,0,0,0-.32.92v7.68a1.36,1.36,0,0,0,.32.92,1.07,1.07,0,0,0,.83.36h8a15.49,15.49,0,0,0,4.57-.66,16.54,16.54,0,0,0,3.8-1.68,14.83,14.83,0,0,0,3.21-2.74,32.28,32.28,0,0,0,2.65-3.32,34.85,34.85,0,0,0,2.28-4q1.2-2.4,1.93-4.2T37.14,39.51Z"
            transform="translate(-7.78 -5.51)" />
          <path class="cls-1"
            d="M8.92,24.71h8a7.17,7.17,0,0,1,2.91.58,7.77,7.77,0,0,1,2.25,1.4A10.64,10.64,0,0,1,23.91,29a25.93,25.93,0,0,1,1.44,2.54c.36.73.8,1.7,1.32,2.9a78,78,0,0,1,4.9-10.92q-5.71-9-14.65-9h-8a1.06,1.06,0,0,0-.82.36,1.34,1.34,0,0,0-.32.92v7.68a1.36,1.36,0,0,0,.32.92A1.06,1.06,0,0,0,8.92,24.71Z"
            transform="translate(-7.78 -5.51)" />
          <path class="cls-1"
            d="M60.07,41.75a1.26,1.26,0,0,0-.86-.4,1,1,0,0,0-.82.36,1.29,1.29,0,0,0-.32.92v7.68H48.92A7.41,7.41,0,0,1,46,49.73a8.54,8.54,0,0,1-2.25-1.4,11.22,11.22,0,0,1-1.82-2.26,25,25,0,0,1-1.44-2.54c-.36-.74-.8-1.7-1.33-2.9a85,85,0,0,1-4.85,10.92,23.13,23.13,0,0,0,2,2.78c.69.81,1.34,1.52,2,2.14a10.56,10.56,0,0,0,2.11,1.6q1.17.68,2.07,1.14a9.41,9.41,0,0,0,2.25.74c.9.18,1.67.32,2.29.42a24.5,24.5,0,0,0,2.53.2c1.07,0,1.94,0,2.61,0s1.63,0,2.89,0,2.28,0,3,0v7.68a1.31,1.31,0,0,0,.34.9,1.07,1.07,0,0,0,1.62,0l11.43-12.8a1.36,1.36,0,0,0,.32-.92,1.34,1.34,0,0,0-.32-.92Z"
            transform="translate(-7.78 -5.51)" />
        </svg>