<svg id="Layer_1" data-name="Layer 1" xmlns="http://www.w3.org/2000/svg" viewBox="0 0 64.03 64.01"><defs><style>.cls-1{fill:#4c82af;}</style></defs><title>shuffle-active</title><path class="cls-1" d="M29.36,34c1.09-2.91,2-5.19,2.78-6.84.58-1.23,1.11-2.26,1.61-3.1a16.3,16.3,0,0,1,1.82-2.46A7,7,0,0,1,38,19.8a7.85,7.85,0,0,1,3.1-.6h9.15v7.68a1.36,1.36,0,0,0,.34.9,1.07,1.07,0,0,0,1.51.11l.11-.11L63.68,15a1.48,1.48,0,0,0,0-1.84L52.29.39A1.32,1.32,0,0,0,51.43,0a1,1,0,0,0-.82.36,1.28,1.28,0,0,0-.32.92V9H41.14a15.36,15.36,0,0,0-4.57.66,16.54,16.54,0,0,0-3.8,1.68A14.8,14.8,0,0,0,29.55,14a31.26,31.26,0,0,0-2.64,3.32,34.36,34.36,0,0,0-2.28,4q-1.2,2.4-1.93,4.2T20.93,30c-1.1,2.9-2,5.18-2.79,6.84-.57,1.22-1.1,2.26-1.6,3.1a16.3,16.3,0,0,1-1.82,2.46,7,7,0,0,1-2.5,1.8,7.7,7.7,0,0,1-3.11.6h-8a1,1,0,0,0-.82.36,1.34,1.34,0,0,0-.32.92v7.68a1.34,1.34,0,0,0,.32.92,1.05,1.05,0,0,0,.83.36h8a15.36,15.36,0,0,0,4.57-.66,16.54,16.54,0,0,0,3.8-1.68A14.79,14.79,0,0,0,20.7,50a32.4,32.4,0,0,0,2.65-3.32,34.36,34.36,0,0,0,2.28-4q1.2-2.4,1.93-4.2Z" transform="translate(0.03 0)"/><path class="cls-1" d="M1.14,19.2h8a7.27,7.27,0,0,1,2.91.58,7.72,7.72,0,0,1,2.25,1.4,10.77,10.77,0,0,1,1.83,2.31A25.47,25.47,0,0,1,17.57,26c.36.73.8,1.7,1.32,2.9A78,78,0,0,1,23.79,18Q18.08,9,9.14,9h-8a1,1,0,0,0-.82.36,1.34,1.34,0,0,0-.32.92V18a1.34,1.34,0,0,0,.32.92A1,1,0,0,0,1.14,19.2Z" transform="translate(0.03 0)"/><path class="cls-1" d="M52.29,36.24a1.27,1.27,0,0,0-.86-.4,1,1,0,0,0-.82.36,1.28,1.28,0,0,0-.32.92V44.8H41.14a7.32,7.32,0,0,1-2.92-.58A8.58,8.58,0,0,1,36,42.82a11.35,11.35,0,0,1-1.82-2.26A25.47,25.47,0,0,1,32.71,38c-.36-.74-.8-1.7-1.33-2.9A85.17,85.17,0,0,1,26.53,46a24.76,24.76,0,0,0,2,2.78,26.5,26.5,0,0,0,2,2.14,10.29,10.29,0,0,0,2.11,1.6q1.17.67,2.07,1.14a9.42,9.42,0,0,0,2.25.74c.9.18,1.67.32,2.29.42a23.74,23.74,0,0,0,2.53.2h8.5v7.68a1.36,1.36,0,0,0,.34.9,1.07,1.07,0,0,0,1.51.11l.11-.11,11.43-12.8a1.48,1.48,0,0,0,0-1.84Z" transform="translate(0.03 0)"/></svg>