<svg id="Layer_1" data-name="Layer 1" xmlns="http://www.w3.org/2000/svg" viewBox="0 0 64 64"><defs><style>.cls-1{fill:#fff;}</style></defs><title>volume-high</title><path class="cls-1" d="M69.46,19.91,63.8,26.37A34.25,34.25,0,0,1,72,49a34.22,34.22,0,0,1-8.2,22.63l5.66,6.46A44,44,0,0,0,80,49,44,44,0,0,0,69.46,19.91Z" transform="translate(-16 -17)"/><path class="cls-1" d="M58.14,32.84,52.49,39.3a15.16,15.16,0,0,1,0,19.4l5.65,6.46A24.43,24.43,0,0,0,64,49a24.43,24.43,0,0,0-5.86-16.16Z" transform="translate(-16 -17)"/><path class="cls-1" d="M26,30.71H16V67.29H26l7.92,7.76A20.11,20.11,0,0,0,48,81h0V17A20.11,20.11,0,0,0,33.92,23L26,30.71Z" transform="translate(-16 -17)"/></svg>