<svg id="Layer_1" data-name="Layer 1" xmlns="http://www.w3.org/2000/svg" viewBox="0 0 64 64"><defs><style>.cls-1{fill:#fff;}.cls-2{fill:none;}</style></defs><title>volume-high</title><path class="cls-1" d="M2.67,22.39V44.28H16.89L34.67,62.52V4.14L16.89,22.39Zm48,10.94a16.46,16.46,0,0,0-8.89-14.7V48A16.37,16.37,0,0,0,50.67,33.33Zm-8.89-32V8.85A25.49,25.49,0,0,1,59.56,33.33,25.5,25.5,0,0,1,41.78,57.82v7.51a32.65,32.65,0,0,0,24.89-32A32.66,32.66,0,0,0,41.78,1.33Z" transform="translate(-2.67 -1.33)"/><path class="cls-2" d="M22.67,21.33h24v24h-24Z" transform="translate(-2.67 -1.33)"/></svg>